<svg preserveAspectRatio="none" width="100%" height="100%" overflow="visible" style="display: block;" viewBox="0 0 4073.52 570.851" fill="none" xmlns="http://www.w3.org/2000/svg">
<g id="Group">
<path id="Vector" d="M3339.37 462.686L3301.98 464.706L3180.78 464.766L3143.28 460.746L3164 427.186L3165.2 370.786V284.466L3163.97 145.146C3153.91 134.486 3147.61 125.026 3139.6 111.026L3164.87 108.566L3238.17 108.446L3271.1 109.346L3306.29 110.316L3334.46 111.636C3339.21 111.856 3348.37 111.336 3352.12 113.856L3402.13 147.496L3402.25 423.556L3364.8 450.316C3357.83 455.296 3348.87 462.186 3339.38 462.696L3339.37 462.686ZM3318.17 374.606L3318.14 196.746C3311.62 191.776 3301.93 184.466 3294.66 184.436L3249.84 184.266L3249.98 377.456L3248.88 387.496L3298.15 387.116C3304.9 387.066 3313.27 380.186 3318.16 374.616L3318.17 374.606Z" fill="var(--fill-0, #48E000)"/>
<g id="Group_2">
<g id="Group_3">
<path id="Vector_2" d="M150.381 522.836C146.561 524.816 139.611 527.266 135.731 526.076C132.581 525.116 129.611 521.096 126.181 517.176L112.521 501.576C100.661 492.896 87.6914 487.726 74.9914 480.666L6.98137 442.856L0.941365 439.466C-0.798635 438.486 0.191365 432.406 1.36137 430.546L11.5214 414.386L20.8014 323.686L61.4614 344.486L106.081 365.956L106.531 393.156L155.741 419.876L204.081 396.806L203.851 355.796C203.791 345.436 200.771 341.686 191.891 337.846L111.251 302.906L91.8514 296.516L39.4514 272.856L18.4114 261.716L17.6414 139.936L16.3314 108.276L60.3314 80.106C68.7114 74.736 75.7814 69.986 83.5114 61.966L60.8214 23.646L46.9214 1.40599C50.6514 0.225991 56.7114 -0.594009 59.4614 0.545991L130.551 29.946L228.461 71.926L300.501 106.436L298.931 137.976L297.761 163.796L297.191 184.166L295.641 217.626C288.451 218.346 283.471 215.896 277.231 212.986L253.931 202.116L208.631 184.116L207.961 158.426L152.691 134.226L116.831 154.556L118.051 207.366L226.441 253.746C252.131 264.736 276.331 275.856 301.771 288.626L302.121 443.406L256.151 469.216L235.141 480.406L217.081 488.426L185.371 504.666L150.401 522.826L150.381 522.836Z" fill="var(--fill-0, #48E000)"/>
<path id="Vector_3" d="M646.201 444.486L674.431 489.266C678.101 495.086 682.751 499.156 678.891 506.626L624.581 488.976L606.651 482.816L546.291 463.006L513.811 398.276L468.571 312.056L444.131 340.856L444.481 430.076L455.491 444.406L467.971 460.646L462.021 465.816L332.621 465.636C331.741 456.616 336.571 452.346 340.381 445.736L350.701 427.846L351.031 309.976V279.486L350.411 144.186L330.141 115.806C328.771 113.886 325.011 109.106 326.221 107.206C327.431 105.306 331.651 103.626 335.011 102.056L424.021 102.086L448.291 104.376C450.601 104.596 455.631 105.556 456.171 107.546C456.711 109.536 455.611 114.186 454.661 116.366L443.511 141.896L443.641 223.296L470.381 184.376L483.161 164.926L502.271 136.236L514.091 112.396C516.651 107.236 516.981 101.956 524.221 101.966L618.211 102.116C625.891 102.126 631.641 103.076 640.521 105.636L613.791 137.646C604.311 140.546 600.801 147.896 595.231 155.116L529.221 240.696L617.121 396.496L636.801 431.436L646.161 444.456L646.201 444.486Z" fill="var(--fill-0, #48E000)"/>
</g>
<path id="Vector_4" d="M1565.4 458.236L1507.47 429.646C1500.53 419.926 1514.62 414.806 1516.75 395.976L1519.28 373.566L1523.78 322.036L1569.13 344.766L1601.67 360.466L1602.91 384.726L1657.92 409.176L1691.12 390.126L1689.74 341.316L1643.57 320.426L1611.55 306.726C1587.43 296.406 1563.97 287.886 1540.77 275.466L1524.18 266.576L1522.77 239.586L1522.08 132.156L1559.19 112.916C1565.82 109.476 1571.15 106.706 1578.22 103.656L1594.54 96.596L1629.81 81.856L1684.57 59.756C1696.18 63.206 1695.12 76.026 1711.02 85.376L1792.98 133.566C1792.76 139.636 1787.9 142.556 1784.69 146.296C1776.52 155.806 1779.29 170.166 1778.14 181.886L1773.44 229.706C1746.26 215.906 1723.64 206.006 1696.33 197.356L1696.12 173.376L1658.51 153.936L1613.6 173.956L1613.57 216.626L1685.88 248.106L1780.2 290.486L1780.39 421.086L1782 432.876L1733.69 463.146L1704.38 480.076L1678.07 504.156C1670.98 502.846 1663.41 499.806 1656.89 496.986L1615.24 478.916L1565.42 458.216L1565.4 458.236Z" fill="var(--fill-0, #48E000)"/>
<path id="Vector_5" d="M963.311 119.406L945.011 143.716L943.461 168.156L943.491 399.466L945.641 423.296L893.581 450.956C886.941 454.486 879.551 455.856 872.741 458.496L828.381 475.686C818.691 479.436 811.361 480.246 801.301 476.446L755.121 459.006C741.301 453.786 729.201 448.776 715.941 441.956L682.281 424.646C681.531 413.216 681.921 401.396 684.111 389.666L684.221 281.976L681.861 271.826L681.921 175.726C683.561 166.966 686.781 151.826 681.851 144.946L665.621 122.316C662.851 118.456 660.631 112.976 659.621 108.336L690.261 106.476L766.291 106.246L790.391 109.136L774.251 142.136L773.281 213.286C772.931 238.766 772.881 263.266 773.111 288.656L773.811 365.846C773.861 371.106 776.321 376.556 780.971 378.586L814.451 393.216L851.551 377.276C853.311 374.756 855.631 368.476 855.601 365.686L854.841 274.896L854.111 142.646L838.451 116.076C837.671 114.756 836.441 108.886 837.841 108.766L844.261 108.236L864.461 106.576L926.421 106.606L964.931 108.516C966.991 109.246 965.421 116.616 963.331 119.386L963.311 119.406Z" fill="var(--fill-0, #48E000)"/>
<path id="Vector_6" d="M1224.39 346.556L1222.86 421.916L1223.4 460.266C1223.43 462.456 1218.01 465.656 1216.09 465.656L988.811 465.676C986.451 465.676 981.551 463.716 980.291 462.156C979.031 460.596 980.841 455.066 981.971 453.396L998.391 429.126L999.351 350.896L999.311 282.446L998.241 144.626L979.501 120.046C977.761 117.766 976.121 111.466 975.901 108.446L1008.33 106.676L1081.49 106.776L1108.03 109.576L1090.31 142.586L1090.2 287.676L1090.73 385.446H1171.28L1199.53 356.646L1215.64 341.836C1216.28 341.256 1220.53 340.976 1221.39 340.976C1222.69 340.976 1224.42 344.396 1224.38 346.576L1224.39 346.556Z" fill="var(--fill-0, #48E000)"/>
<path id="Vector_7" d="M1485.34 409.826L1484.18 465.296L1260.38 465.876C1253.67 465.896 1247.92 464.126 1241.75 461.326L1261.58 428.876L1263.14 378.396L1264.41 291.696L1262.32 273.596L1261.9 144.806C1251.82 134.926 1238.15 117.066 1240.11 108.666L1280.17 106.726C1301.96 105.666 1324.45 105.096 1345.4 107.486L1371.76 110.496L1354.26 141.966L1353.17 216.916L1353.29 276.896L1354.29 385.546L1433.53 385.406L1477.82 340.866L1484.03 342.536C1485.24 342.856 1486.16 346.766 1486.14 348.086L1485.33 409.836L1485.34 409.826Z" fill="var(--fill-0, #48E000)"/>
</g>
<g id="Group_4">
<path id="Vector_8" d="M3833.25 506.846C3830.66 511.986 3822.08 506.566 3817.73 504.186L3764.62 475.126C3754.38 469.526 3742.5 465.406 3734.71 458.316L3681.44 346.506L3654.6 291.006L3654.56 427.486L3672.99 454.006C3673.84 455.236 3675.54 459.846 3674.41 460.396L3667.9 463.566L3580.29 463.506L3552.4 460.756L3572.13 427.286L3572.07 146.866L3557.95 128.376L3548.7 113.126L3566.22 110.206L3647.99 110.296C3654.27 110.296 3659.32 115.276 3661.66 120.426L3670.56 140.016L3681.92 162.416L3734.33 269.296L3734.6 241.806L3734.44 145.846L3717.34 113.226C3747.04 109.516 3774.15 109.336 3802.98 110.916L3836.92 112.776C3831.34 125.256 3825.57 134.816 3816.85 145.436L3817.41 434.866L3833.23 506.856L3833.25 506.846Z" fill="var(--fill-0, #48E000)"/>
<path id="Vector_9" d="M4068.32 293.016L4067.82 427.606L4065.91 453.396C4065.12 464.116 4065.38 472.486 4066.45 482.886L4069.33 510.916L4069.66 533.056C4054.09 529.686 4046.23 521.906 4034.98 514.696L4013.09 500.666C4000.48 492.586 3988.24 489.806 3974.25 485.046L3926.79 468.896C3913.24 464.286 3899.44 460.006 3887.26 452.556L3847.21 428.066C3846.74 425.576 3848.28 418.826 3848.28 415.316L3848.3 146.286L3873.2 130.756C3884.38 123.786 3895.28 114.386 3907.65 109.816L3938.17 98.546L3971.75 85.916L4020.83 68.366L4042.31 61.466C4045.23 63.336 4045.53 70.726 4046.23 74.246L4069.87 192.486C4051.43 191.236 4041.44 179.906 4028.43 172.126L4006.14 158.796L3938.37 183.596C3934.62 184.966 3930.39 192.606 3930.42 196.126L3930.98 273.396V294.286L3930.31 375.786C3930.27 380.726 3934.66 385.136 3938.81 386.866L3988.44 407.546L3988.56 330.866L3964.4 329.496C3966.24 310.446 3963.14 297.076 3954.14 281.396C3952.08 277.806 3951.05 273.486 3950.69 267.846L4010.24 267.106L4073.52 268.606L4068.31 293.046L4068.32 293.016Z" fill="var(--fill-0, #48E000)"/>
<path id="Vector_10" d="M3532.58 463.366H3418.15C3417.01 458.756 3418.85 454.766 3421.32 450.776L3435.74 427.506L3435.9 285.796L3435.76 147.896L3418.01 120.246L3414.66 115.036C3413.93 113.896 3417.39 111.446 3418.92 110.276L3505.59 110.186L3541.64 112.326C3535.64 124.996 3529.04 135.396 3520.49 146.926L3520.44 426.796L3526.74 437.266L3538.09 453.176C3539.15 454.656 3540.51 458.556 3540.1 460.086C3539.69 461.616 3534.79 463.356 3532.58 463.356V463.366Z" fill="var(--fill-0, #48E000)"/>
</g>
<g id="Group_5">
<path id="Vector_11" d="M2450.04 521.506L2431.91 529.546L2405.23 540.786L2376.12 553.256L2331.66 570.496C2329.84 571.206 2325.91 570.806 2324.74 569.696C2323.57 568.586 2324.93 564.506 2325.83 563.146L2346.59 531.816L2375.69 487.376L2375.09 364.926L2375.01 291.946L2375.03 263.606L2375.56 153.836L2315.12 153.956L2282.36 186.556C2280.03 187.966 2273.25 188.296 2272.57 186.316L2270.38 154.116L2261.62 73.936C2261.39 71.826 2261.57 67.236 2262.96 66.216C2264.35 65.196 2268.16 64.076 2270.43 64.086L2469.1 64.826L2532.23 65.426L2586.25 65.456C2586.11 73.076 2584.71 77.676 2581.55 83.066L2568.57 105.176C2566.49 108.726 2570.09 117.886 2569.63 122.056L2564.96 164.046L2564.36 188.146C2556.16 190.236 2552.47 185.636 2547.58 180.656L2521.43 154.006L2468.12 153.866L2469.03 283.036L2469.3 430.496L2468.99 471.416C2476.12 484.846 2496.54 499.536 2489.45 503.556L2483.72 506.806L2450.03 521.516L2450.04 521.506Z" fill="var(--fill-0, #48E000)"/>
<path id="Vector_12" d="M2746.76 455.876L2716.37 383.426L2695.9 336.206L2682.35 340.066L2682.52 427.596C2690.55 447.556 2712.23 462.786 2694.5 463.356L2654.14 464.646H2610.5L2584.04 462.906C2582.74 462.816 2580.06 462.196 2578.94 461.846C2577.82 461.496 2578.84 457.336 2579.47 456.256L2596.22 427.436L2595.79 289.986L2595.65 269.256L2595.98 146.996L2576.01 119.746C2574.1 117.136 2572.68 108.856 2575.9 108.476L2594.24 106.316L2677.41 106.956L2742.36 108.456L2762.03 110.106C2774.63 111.166 2782.64 115.426 2792.37 121.806L2807.95 132.016L2829.88 148.056L2829.83 278.106L2792.92 306.716L2776.44 313.516L2795.59 354.566L2828.96 428.876L2835.51 432.496L2862.05 477.196C2855.35 479.146 2850.97 479.276 2846 478.076L2794.28 465.636L2746.76 455.896V455.876ZM2744.39 239.456L2744.41 193.296C2737.86 189.326 2728.15 184.556 2719.96 184.446L2682.32 183.936L2682.36 263.876L2723.06 250.576C2730.26 248.216 2738.58 244.316 2744.4 239.456H2744.39Z" fill="var(--fill-0, #48E000)"/>
</g>
<path id="Vector_13" d="M3026.71 391.086L2952.87 390.616L2944.45 430.206L2958.16 455.586C2958.9 456.946 2960.03 459.056 2959.32 459.726L2955.49 463.336L2873.02 463.466L2856.77 437.136L2861.63 415.976L2882.07 325.596L2913.04 184.406L2928.14 118.906C2928.58 116.986 2926.04 111.446 2927.08 109.786C2928.32 107.796 2933.14 105.856 2935.99 105.856L3050.29 105.916L3054.33 121.936L3075.94 215.726L3096.49 311.306L3117.28 402.556C3118.99 410.056 3119.03 422.666 3122.67 428.676L3141.76 460.226L3125.89 463.126L3018.76 462.546L3035.28 429.726L3026.71 391.096V391.086ZM3001.27 261.856L2991.4 218.076C2990.69 214.926 2990.51 211.976 2988.92 210.006L2966.67 316.956L3012.95 316.286L3001.27 261.856Z" fill="var(--fill-0, #48E000)"/>
<path id="Vector_14" d="M2182.02 406.546C2192.89 419.276 2220.52 424.106 2217.18 428.796L2213.26 434.286L2136.17 467.356C2132.17 464.086 2129.53 460.026 2126 455.706L2103.56 428.286L2061.99 459.116L2042.88 472.786C2039.17 475.436 2029.96 477.066 2025.12 475.096L1993.42 462.166L1957.95 449.086L1922.77 430.666L1887.53 412.036C1885.51 408.866 1887.7 402.966 1889.45 398.806C1893.6 388.956 1894.65 377.456 1895.26 366.526L1898.07 316.026L1928.27 285.726C1940.18 273.786 1953.99 264.786 1968.68 256.496L1950.28 231.526L1938.85 213.646L1936.78 185.076L1935.91 146.686L1985.36 99.896L2073.98 100.276C2081.07 100.306 2088.29 109.196 2092.45 113.386L2119.63 140.816C2124.54 145.766 2123.72 152.796 2123.72 159.546L2123.79 211.226L2103.95 237.606C2094.03 250.796 2079.46 257.806 2064.78 268.256L2085.09 292.966L2108.56 321.356L2124.14 288.376C2125.59 285.306 2123.25 275.916 2126.12 275.166C2129.33 274.326 2134.79 275.296 2138.47 275.366L2203.99 276.616C2196.71 296.656 2173.31 303.446 2182.43 324.076C2183.33 326.106 2184.58 331.896 2183.01 333.206L2174.7 340.126L2153.53 373.196L2182.01 406.546H2182.02ZM2054.85 195.796L2054.13 170.276C2045.13 157.876 2016.55 157.886 2009.06 170.956L2008.59 193.206L2029.82 221.216L2054.84 195.796H2054.85ZM2061.04 376.556L2030.26 337.636L2005.46 306.256L1975.02 332.916C1972.47 347.296 1973.35 362.296 1975.05 375.946L2029.69 396.976L2061.04 376.566V376.556Z" fill="var(--fill-0, #48E000)"/>
</g>
</svg>
